<svg width="152" height="32" viewBox="0 0 152 32" fill="none" xmlns="http://www.w3.org/2000/svg">
<path d="M7.45993 9.01959C7.70593 9.01929 7.95183 9.01889 8.20523 9.01849C8.72123 9.01799 9.23723 9.01879 9.75323 9.02059C10.4065 9.02269 11.0597 9.02149 11.713 9.01919C12.3473 9.01749 12.9817 9.01869 13.616 9.01959C13.9614 9.01849 13.9614 9.01849 14.3138 9.01729C18.9231 9.04199 18.9231 9.04199 20.0852 10.2014C20.9926 11.5548 21.0598 12.9821 21.0622 14.5783C21.0632 14.7949 21.0632 14.7949 21.0641 15.0158C21.0651 15.3196 21.0655 15.6235 21.0655 15.9273C21.0659 16.3867 21.0694 16.846 21.0729 17.3054C21.0882 21.4448 21.0882 21.4448 19.8962 22.8379C17.6958 24.401 13.8133 23.8386 11.2599 23.8301C10.5395 23.8281 9.81913 23.8301 9.09863 23.8325C2.55253 23.8374 2.55253 23.8374 0.990729 22.6493C0.721129 22.292 0.721128 22.292 0.553528 21.9302C0.495728 21.8123 0.438029 21.6944 0.378529 21.5729C0.0230289 20.5053 0.0154294 19.3871 0.0137294 18.2723C0.0130294 18.128 0.0124286 17.9836 0.0117286 17.8349C0.0108286 17.531 0.0103278 17.2272 0.0104278 16.9233C0.0100278 16.4639 0.00652807 16.0047 0.00292807 15.5453C-0.0122719 11.4058 -0.0122722 11.4058 1.17973 10.0128C2.90253 8.79259 5.43283 9.01289 7.45993 9.01959Z" fill="#FC0505"/>
<path d="M53.5488 9.6355C54.2351 9.6355 54.9214 9.6355 55.6284 9.6355C55.6908 11.0671 55.7532 12.4986 55.8175 13.9735C56.0046 13.7867 56.1918 13.6 56.3846 13.4076C57.1755 13.2295 57.6578 13.1448 58.4288 13.3841C59.3352 14.2625 59.4447 15.4959 59.4848 16.709C59.4863 17.1527 59.4848 17.5965 59.4804 18.0403C59.4826 18.2628 59.4848 18.4854 59.4871 18.7147C59.4821 20.1816 59.363 21.3139 58.5233 22.555C57.8913 22.964 57.2949 22.9619 56.5737 22.8379C56.0065 22.555 56.0065 22.555 55.6284 22.2721C55.5036 22.4588 55.3789 22.6455 55.2503 22.8379C54.6888 22.8379 54.1273 22.8379 53.5488 22.8379C53.5488 18.4811 53.5488 14.1243 53.5488 9.6355ZM56.0065 14.9165C55.5486 15.6017 55.5844 15.9195 55.5915 16.734C55.5927 16.979 55.5939 17.2239 55.5952 17.4763C55.5983 17.735 55.6015 17.9937 55.6048 18.2524C55.6067 18.5134 55.6084 18.7743 55.61 19.0352C55.6144 19.6741 55.6206 20.313 55.6284 20.9519C55.9404 21.0763 56.2523 21.2008 56.5737 21.3291C57.1563 20.6945 57.2119 20.2562 57.2095 19.4069C57.2094 19.1821 57.2093 18.9574 57.2092 18.7258C57.2061 18.4918 57.2031 18.2578 57.1999 18.0167C57.2005 17.782 57.2012 17.5472 57.2018 17.3054C57.2448 16.0395 57.2448 16.0395 56.7627 14.9165C56.5132 14.9165 56.2636 14.9165 56.0065 14.9165Z" fill="#343434"/>
<path d="M36.1547 13.4076C36.841 13.4076 37.5272 13.4076 38.2343 13.4076C38.2967 15.8972 38.3591 18.3868 38.4233 20.9519C38.6105 21.0141 38.7977 21.0763 38.9905 21.1405C39.1777 21.0471 39.1777 21.0471 39.3686 20.9519C39.431 18.4623 39.4934 15.9727 39.5577 13.4076C40.3063 13.4076 41.055 13.4076 41.8263 13.4076C41.831 14.7203 41.8344 16.033 41.8367 17.3457C41.8377 17.7927 41.839 18.2397 41.8406 18.6866C41.8429 19.3275 41.8439 19.9684 41.8448 20.6093C41.8458 20.8104 41.8467 21.0116 41.8477 21.2189C41.8478 21.4964 41.8478 21.4964 41.8478 21.7795C41.8482 21.9433 41.8486 22.107 41.8491 22.2758C41.8263 22.6493 41.8263 22.6493 41.6373 22.8379C41.1324 22.8645 40.6307 22.8459 40.1248 22.8379C40.0001 22.5889 39.8753 22.34 39.7467 22.0835C39.6258 22.208 39.505 22.3324 39.3804 22.4607C38.7018 22.9028 38.3023 22.9604 37.5076 22.9234C36.8318 22.7817 36.5451 22.4426 36.1547 21.8949C35.9021 21.0308 35.9383 20.1494 35.9405 19.2574C35.9403 19.0959 35.9402 18.9344 35.94 18.768C35.9398 18.4281 35.9402 18.0883 35.941 17.7484C35.942 17.2261 35.941 16.7038 35.9398 16.1815C35.9399 15.8512 35.9401 15.5209 35.9405 15.1906C35.9401 15.0336 35.9398 14.8766 35.9394 14.7149C35.9439 13.6179 35.9439 13.6179 36.1547 13.4076Z" fill="#3A3A3A"/>
<path d="M46.7413 13.4076C47.4276 13.4076 48.1139 13.4076 48.8209 13.4076C48.8833 15.8972 48.9457 18.3868 49.01 20.9519C49.1972 21.0141 49.3843 21.0763 49.5772 21.1405C49.7643 21.0471 49.7643 21.0471 49.9553 20.9519C50.0177 18.4623 50.08 15.9727 50.1443 13.4076C50.893 13.4076 51.6416 13.4076 52.413 13.4076C52.4176 14.7203 52.4211 16.033 52.4234 17.3457C52.4243 17.7927 52.4256 18.2397 52.4272 18.6866C52.4295 19.3275 52.4306 19.9684 52.4314 20.6093C52.4324 20.8104 52.4334 21.0116 52.4344 21.2189C52.4344 21.4964 52.4344 21.4964 52.4344 21.7795C52.4349 21.9433 52.4353 22.107 52.4357 22.2758C52.413 22.6493 52.413 22.6493 52.2239 22.8379C51.719 22.8645 51.2173 22.8459 50.7115 22.8379C50.5867 22.5889 50.4619 22.34 50.3334 22.0835C50.2125 22.208 50.0916 22.3324 49.9671 22.4607C49.1912 22.9662 48.5895 22.9728 47.6866 22.8379C47.2258 22.6375 47.2258 22.6375 46.9304 22.2721C46.5611 21.2357 46.499 20.3143 46.5087 19.2205C46.5088 19.0596 46.5089 18.8986 46.509 18.7328C46.5095 18.3952 46.511 18.0576 46.5134 17.72C46.5168 17.201 46.5172 16.6821 46.5172 16.1631C46.5181 15.8345 46.5192 15.5059 46.5205 15.1773C46.5207 15.0215 46.5209 14.8657 46.5212 14.7052C46.5303 13.6182 46.5303 13.6182 46.7413 13.4076Z" fill="#3B3B3B"/>
<path d="M23.1094 10.0128C23.7957 10.0128 24.4819 10.0128 25.189 10.0128C25.6301 11.7731 26.0713 13.5334 26.5124 15.2937C26.5458 15.1404 26.5791 14.9872 26.6135 14.8292C26.7642 14.1391 26.916 13.4492 27.0677 12.7593C27.1203 12.518 27.1728 12.2767 27.2269 12.0281C27.2775 11.799 27.328 11.5698 27.3801 11.3337C27.4267 11.1214 27.4732 10.909 27.5211 10.6902C27.6467 10.2014 27.6467 10.2014 27.8358 10.0128C28.1861 9.9991 28.5369 9.9969 28.8874 10.001C29.0787 10.0027 29.27 10.0044 29.4671 10.0061C29.615 10.0083 29.763 10.0105 29.9154 10.0128C29.7125 11.174 29.4324 12.2937 29.0934 13.4224C28.1519 16.5779 27.3327 19.5084 27.4577 22.8379C27.1465 22.843 26.8354 22.8466 26.5242 22.8497C26.3509 22.8519 26.1777 22.8541 25.9991 22.8563C25.5671 22.8379 25.5671 22.8379 25.3781 22.6493C25.3825 22.4154 25.3868 22.1815 25.3914 21.9406C25.4446 18.9305 24.7052 16.2923 23.8395 13.4348C23.7922 13.2782 23.745 13.1215 23.6962 12.9601C23.6062 12.6641 23.5148 12.3684 23.4216 12.0733C23.1942 11.3342 23.1094 10.8006 23.1094 10.0128Z" fill="#373737"/>
<path d="M33.5554 13.443C34.3089 13.9385 34.735 14.4392 35.0205 15.2937C35.0677 16.0588 35.0717 16.8239 35.0763 17.5903C35.0796 17.9649 35.0879 18.3395 35.0962 18.714C35.1055 20.1083 35.08 21.1145 34.2643 22.2721C33.5886 22.8331 33.052 22.9153 32.1847 22.9086C31.9936 22.9101 31.8026 22.9115 31.6057 22.9131C30.8026 22.8044 30.3222 22.5071 29.7765 21.9162C28.6994 20.1164 28.9297 17.0852 29.3947 15.122C29.6918 14.3046 30.1656 13.7847 30.9204 13.3369C31.8806 13.1142 32.6392 13.1091 33.5554 13.443ZM31.8066 14.9165C31.4996 15.5917 31.3801 16.1208 31.3783 16.8607C31.3778 17.0483 31.3773 17.2359 31.3768 17.4291C31.3783 17.623 31.3797 17.8169 31.3812 18.0167C31.3798 18.2098 31.3783 18.403 31.3768 18.602C31.3793 19.5837 31.4093 20.4122 31.8066 21.3291C32.2745 21.2357 32.2745 21.2357 32.7519 21.1405C32.9876 20.0998 32.9757 19.091 32.9764 18.0285C32.9787 17.8337 32.981 17.639 32.9834 17.4383C32.9838 17.2499 32.9841 17.0615 32.9845 16.8674C32.9853 16.6966 32.9861 16.5258 32.9869 16.3498C32.9366 15.8128 32.7858 15.4053 32.5628 14.9165C32.3133 14.9165 32.0637 14.9165 31.8066 14.9165Z" fill="#333333"/>
<path d="M65.0808 13.7849C65.8355 14.9392 65.8644 16.085 65.8489 17.4273C65.845 17.9058 65.8411 18.3842 65.8371 18.8772C64.7141 18.8772 63.5911 18.8772 62.4341 18.8772C62.4965 19.6863 62.5589 20.4954 62.6231 21.3291C62.9351 21.2046 63.247 21.0801 63.5684 20.9519C63.7382 20.3761 63.7382 20.3761 63.7575 19.8202C64.3813 19.8202 65.0052 19.8202 65.648 19.8202C65.8681 20.6984 65.7872 21.0613 65.459 21.8949C64.4732 22.8291 63.7598 22.918 62.4319 22.9005C61.8951 22.841 61.6216 22.7872 61.1934 22.4725C60.1367 21.148 60.0751 19.6684 60.0945 18.0285C60.0923 17.8435 60.0901 17.6584 60.0879 17.4678C60.0934 16.0867 60.1896 14.7177 61.1934 13.6906C62.4661 12.9473 63.8093 13.053 65.0808 13.7849ZM62.8122 14.7279C62.3719 15.0841 62.3719 15.0841 62.3972 15.6783C62.4015 15.9015 62.4059 16.1247 62.4104 16.3546C62.4139 16.5788 62.4173 16.8029 62.4208 17.0339C62.4252 17.2065 62.4296 17.3791 62.4341 17.557C62.8708 17.557 63.3075 17.557 63.7575 17.557C63.7626 17.2584 63.7663 16.9597 63.7693 16.6611C63.7726 16.4116 63.7726 16.4116 63.7759 16.1572C63.759 15.712 63.6949 15.3418 63.5684 14.9165C63.2108 14.788 63.2108 14.788 62.8122 14.7279Z" fill="#383838"/>
<path d="M42.1985 9.98662C42.3947 9.98712 42.3947 9.98713 42.5948 9.98773C42.7283 9.98753 42.8619 9.98733 42.9995 9.98723C43.2824 9.98703 43.5653 9.98743 43.8482 9.98823C44.2826 9.98923 44.717 9.98823 45.1514 9.98703C45.4257 9.98713 45.6999 9.98733 45.9741 9.98773C46.1049 9.98733 46.2356 9.98692 46.3704 9.98662C47.2876 9.99112 47.2876 9.99113 47.4984 10.2014C47.5235 10.5432 47.5235 10.5432 47.522 10.9558C47.5227 11.16 47.5227 11.16 47.5235 11.3684C47.4984 11.7102 47.4984 11.7102 47.3093 11.8988C46.9905 11.9124 46.6712 11.9146 46.3522 11.9106C46.1785 11.9089 46.0047 11.9072 45.8257 11.9054C45.6914 11.9033 45.5571 11.9011 45.4188 11.8988C45.4192 12.0331 45.4196 12.1673 45.42 12.3057C45.4238 13.5685 45.4267 14.8313 45.4286 16.0941C45.4295 16.7434 45.4309 17.3927 45.433 18.042C45.4355 18.7877 45.4364 19.5335 45.4372 20.2792C45.4382 20.5134 45.4392 20.7476 45.4402 20.9888C45.4402 21.3117 45.4402 21.3117 45.4402 21.641C45.4406 21.8316 45.4411 22.0222 45.4415 22.2185C45.4188 22.6493 45.4188 22.6493 45.2297 22.8379C44.9151 22.8564 44.5996 22.8624 44.2844 22.8615C44.0271 22.8622 44.0271 22.8622 43.7645 22.863C43.3392 22.8379 43.3392 22.8379 43.1501 22.6493C43.1324 22.3136 43.1279 21.9772 43.1286 21.641C43.1287 21.4258 43.1287 21.2106 43.1287 20.9888C43.1297 20.7547 43.1306 20.5205 43.1316 20.2792C43.1319 20.0409 43.1322 19.8025 43.1325 19.5569C43.1333 18.9222 43.135 18.2875 43.1371 17.6528C43.1391 17.0056 43.1399 16.3583 43.1409 15.7111C43.143 14.4403 43.1462 13.1696 43.1501 11.8988C42.4638 11.8988 41.7776 11.8988 41.0705 11.8988C41.052 10.5911 41.052 10.5911 41.0705 10.2014C41.3875 9.88513 41.7754 9.98862 42.1985 9.98662Z" fill="#353535"/>
<path d="M8.36328 13.219C9.52358 13.682 10.5582 14.2904 11.6363 14.9165C11.8485 15.0376 12.0606 15.1586 12.2792 15.2834C12.4796 15.3996 12.6801 15.5158 12.8866 15.6355C13.0707 15.7418 13.2548 15.848 13.4444 15.9575C13.5769 16.0496 13.7094 16.1418 13.8459 16.2367C13.8459 16.3612 13.8459 16.4857 13.8459 16.6139C13.7182 16.6852 13.5904 16.7566 13.4588 16.83C12.8785 17.1543 12.2988 17.4794 11.7191 17.8045C11.518 17.9167 11.3169 18.0289 11.1098 18.1445C10.916 18.2533 10.7223 18.3621 10.5227 18.4742C10.2554 18.6238 10.2554 18.6238 9.98268 18.7765C9.49698 19.0536 9.49698 19.0536 9.07908 19.3857C8.74138 19.6316 8.74138 19.6316 8.36328 19.6316C8.36328 17.5155 8.36328 15.3993 8.36328 13.219Z" fill="#FEF9F9"/>
<path d="M41.8364 9.99127C42.0914 9.99137 42.3464 9.99237 42.6014 9.99427C42.8024 9.99467 42.8024 9.99468 43.0075 9.99508C43.4371 9.99618 43.8667 9.99857 44.2963 10.001C44.5868 10.0019 44.8774 10.0028 45.168 10.0035C45.8818 10.0056 46.5956 10.0089 47.3093 10.0128C47.3093 10.1372 47.3093 10.2617 47.3093 10.39C45.3753 10.39 43.4413 10.39 41.4486 10.39C41.4486 10.7634 41.4486 11.1368 41.4486 11.5216C41.6296 11.5183 41.6296 11.5183 41.8142 11.515C42.0485 11.5124 42.0485 11.5124 42.2875 11.5098C42.4433 11.5076 42.599 11.5054 42.7594 11.5032C43.1501 11.5216 43.1501 11.5216 43.3392 11.7102C43.3569 12.0517 43.3614 12.3939 43.3606 12.7358C43.3606 12.9548 43.3606 13.1738 43.3606 13.3994C43.3596 13.6377 43.3586 13.876 43.3576 14.1215C43.3574 14.3641 43.3571 14.6066 43.3568 14.8565C43.3561 15.5024 43.3542 16.1482 43.3521 16.7941C43.3502 17.4527 43.3493 18.1114 43.3484 18.77C43.3464 20.0631 43.3431 21.3562 43.3392 22.6493C43.2768 22.6493 43.2144 22.6493 43.1501 22.6493C43.1501 19.1016 43.1501 15.554 43.1501 11.8988C42.4638 11.8988 41.7776 11.8988 41.0705 11.8988C41.052 10.5911 41.052 10.5911 41.0705 10.2014C41.2596 10.0128 41.2596 10.0128 41.8364 9.99127Z" fill="#3B3B3B"/>
<mask id="mask0_963_187" style="mask-type:luminance" maskUnits="userSpaceOnUse" x="102" y="11" width="43" height="13">
<path d="M145 11H102V24H145V11Z" fill="white"/>
</mask>
<g mask="url(#mask0_963_187)">
<path d="M111.766 16.0469C111.767 17.2439 111.332 18.3999 110.545 19.2973C109.757 20.1947 108.67 20.7715 107.489 20.9194C106.308 21.0672 105.113 20.7758 104.131 20.0999C103.148 19.4241 102.445 18.4105 102.154 17.2498C102.154 17.1769 102.121 17.1073 102.108 17.0344C102.095 16.9615 102.075 16.8588 102.062 16.766C102.049 16.6732 102.042 16.6334 102.035 16.5473C102.001 16.2168 102.001 15.8836 102.035 15.5531C102.035 15.4902 102.035 15.4272 102.059 15.3643C102.082 15.3013 102.088 15.1621 102.108 15.066C102.128 14.9699 102.138 14.9268 102.154 14.8573C102.445 13.6971 103.148 12.6839 104.129 12.0081C105.111 11.3322 106.305 11.0403 107.486 11.1873C108.666 11.3342 109.753 11.9099 110.541 12.806C111.33 13.7022 111.765 14.8571 111.766 16.0535V16.0469Z" fill="#B6202B"/>
<path d="M111.766 16.0469C111.767 17.2439 111.332 18.3999 110.545 19.2973C109.757 20.1947 108.67 20.7715 107.489 20.9194C106.308 21.0672 105.113 20.7758 104.131 20.0999C103.148 19.4241 102.445 18.4105 102.154 17.2498C102.154 17.1769 102.121 17.1073 102.108 17.0344C102.095 16.9615 102.075 16.8588 102.062 16.766C102.049 16.6732 102.042 16.6334 102.035 16.5473C102.001 16.2168 102.001 15.8836 102.035 15.5531C102.035 15.4902 102.035 15.4272 102.059 15.3643C102.082 15.3013 102.088 15.1621 102.108 15.066C102.128 14.9699 102.138 14.9268 102.154 14.8573C102.445 13.6971 103.148 12.6839 104.129 12.0081C105.111 11.3322 106.305 11.0403 107.486 11.1873C108.666 11.3342 109.753 11.9099 110.541 12.806C111.33 13.7022 111.765 14.8571 111.766 16.0535V16.0469Z" fill="#B6202B"/>
<path d="M111.766 16.0469C111.767 17.2439 111.332 18.3999 110.545 19.2973C109.757 20.1947 108.67 20.7715 107.489 20.9194C106.308 21.0672 105.113 20.7758 104.131 20.0999C103.148 19.4241 102.445 18.4105 102.154 17.2498C102.154 17.1769 102.121 17.1073 102.108 17.0344C102.095 16.9615 102.075 16.8588 102.062 16.766C102.049 16.6732 102.042 16.6334 102.035 16.5473C102.001 16.2168 102.001 15.8836 102.035 15.5531C102.035 15.4902 102.035 15.4272 102.059 15.3643C102.082 15.3013 102.088 15.1621 102.108 15.066C102.128 14.9699 102.138 14.9268 102.154 14.8573C102.445 13.6971 103.148 12.6839 104.129 12.0081C105.111 11.3322 106.305 11.0403 107.486 11.1873C108.666 11.3342 109.753 11.9099 110.541 12.806C111.33 13.7022 111.765 14.8571 111.766 16.0535V16.0469Z" fill="#B6202B"/>
<path d="M106.777 13.6875H104.457V16.1695H106.777V13.6875Z" fill="#BE3C43"/>
<path d="M109.124 15.858L106.033 14.0653C105.983 14.0361 105.926 14.0208 105.868 14.0209C105.81 14.0209 105.753 14.0363 105.703 14.0656C105.653 14.0948 105.612 14.1368 105.583 14.1874C105.554 14.238 105.539 14.2953 105.539 14.3536V17.9391C105.539 17.9971 105.555 18.054 105.584 18.1041C105.613 18.1542 105.655 18.1957 105.705 18.2246C105.755 18.2534 105.811 18.2686 105.869 18.2685C105.927 18.2684 105.983 18.2531 106.033 18.2241L109.124 16.4313C109.174 16.4022 109.216 16.3604 109.245 16.3101C109.273 16.2597 109.289 16.2027 109.289 16.1447C109.289 16.0866 109.273 16.0296 109.245 15.9793C109.216 15.929 109.174 15.8871 109.124 15.858Z" fill="white"/>
<path d="M144.999 19.4203V19.5098H142.119L142.244 19.4137L144.211 17.8894L144.445 18.3467L144.996 19.4137L144.999 19.4203Z" fill="#5A5B5F"/>
<path d="M145 16.0469C145 17.3854 144.471 18.6691 143.53 19.6156C142.589 20.5621 141.312 21.0938 139.981 21.0938H109.072C110.049 20.6667 110.882 19.9617 111.467 19.0656C112.051 18.1694 112.363 17.121 112.364 16.0491C112.365 14.9771 112.054 13.9283 111.471 13.0314C110.887 12.1345 110.055 11.4284 109.078 11H139.981C141.312 11 142.589 11.5317 143.53 12.4782C144.471 13.4247 145 14.7084 145 16.0469Z" fill="#B6202B"/>
<path d="M111.79 16.0469C111.79 16.0867 111.79 16.1297 111.79 16.1695H109.302C109.303 16.1114 109.288 16.0542 109.26 16.0036C109.232 15.953 109.191 15.9108 109.141 15.8812L106.004 14.0686C105.954 14.0387 105.897 14.0228 105.839 14.0222C105.78 14.0217 105.723 14.0367 105.673 14.0657C105.622 14.0946 105.58 14.1365 105.551 14.1871C105.522 14.2376 105.506 14.2951 105.506 14.3536V16.1695H102C102 16.1297 102 16.0867 102 16.0469C102 15.8798 102.009 15.7128 102.026 15.5465C102.026 15.4836 102.026 15.4206 102.049 15.3576C102.072 15.2947 102.079 15.1555 102.099 15.0594C102.119 14.9633 102.129 14.9202 102.145 14.8506C102.437 13.6865 103.141 12.6695 104.126 11.991C105.111 11.3124 106.308 11.0191 107.493 11.166C108.678 11.313 109.768 11.8901 110.56 12.7889C111.351 13.6878 111.789 14.8464 111.79 16.0469Z" fill="#BE3C43"/>
<path d="M145 16.0469C145 16.0867 145 16.1297 145 16.1695H112.377C112.377 16.1297 112.377 16.0867 112.377 16.0469C112.376 14.9738 112.064 13.9243 111.478 13.0275C110.892 12.1308 110.058 11.426 109.078 11H139.981C141.312 11 142.589 11.5317 143.53 12.4782C144.471 13.4247 145 14.7084 145 16.0469Z" fill="#BE3C43"/>
<path d="M122.01 19.5131H145.001V21.7831C145.001 22.371 144.769 22.9349 144.355 23.3507C143.942 23.7664 143.381 24 142.796 24H122.01C121.72 24.0013 121.432 23.9449 121.163 23.8341C120.895 23.7233 120.65 23.5602 120.445 23.3542C120.239 23.1482 120.076 22.9034 119.964 22.6338C119.853 22.3641 119.795 22.075 119.795 21.7831V21.7334C119.795 21.1454 120.028 20.5815 120.441 20.1658C120.855 19.75 121.415 19.5164 122 19.5164L122.01 19.5131Z" fill="#483F3A"/>
<path d="M145.001 19.4137V21.6572H119.795V21.6306C119.795 21.4494 119.818 21.2689 119.865 21.0938C119.983 20.614 120.257 20.1878 120.644 19.8832C121.031 19.5787 121.509 19.4134 122 19.4137H145.001Z" fill="#504742"/>
<path d="M115.062 13.2998H116.279V17.674H118.398V18.6979H115.062V13.2998Z" fill="white"/>
<path d="M119.637 13.2998H120.85V18.6979H119.637V13.2998Z" fill="white"/>
<path d="M121.729 13.2998H123.011L123.67 15.8149C123.828 16.4048 123.937 16.9516 124.098 17.5481H124.131C124.296 16.9516 124.408 16.4048 124.563 15.8149L125.195 13.2998H126.434L124.807 18.6979H123.35L121.729 13.2998Z" fill="white"/>
<path d="M127.238 13.2998H130.603V14.3138H128.454V15.4073H130.283V16.4313H128.454V17.674H130.685V18.6979H127.238V13.2998Z" fill="white"/>
<path d="M122.295 21.962L121.771 20.8519H122.186L122.341 21.2462C122.387 21.3755 122.43 21.4981 122.479 21.6306C122.529 21.4981 122.578 21.3755 122.624 21.2462L122.779 20.8519H123.184L122.667 21.962V22.5784H122.295V21.962Z" fill="white"/>
<path d="M123.258 21.7069C123.258 21.1435 123.587 20.8188 124.035 20.8188C124.484 20.8188 124.816 21.1501 124.816 21.7069C124.816 22.2636 124.5 22.5983 124.035 22.5983C123.571 22.5983 123.258 22.2669 123.258 21.7069ZM124.418 21.7069C124.418 21.3589 124.269 21.1568 124.035 21.1568C123.802 21.1568 123.653 21.3589 123.653 21.7069C123.653 22.0548 123.802 22.2669 124.035 22.2669C124.269 22.2669 124.408 22.0515 124.408 21.7069H124.418Z" fill="white"/>
<path d="M125.131 21.7764V20.8519H125.519V21.8162C125.519 22.1476 125.625 22.2735 125.819 22.2735C126.014 22.2735 126.122 22.1542 126.122 21.8162V20.8519H126.498V21.7764C126.498 22.3564 126.264 22.6082 125.819 22.6082C125.374 22.6082 125.131 22.3564 125.131 21.7764Z" fill="white"/>
<path d="M127.23 21.1767H126.758V20.8453H128.093V21.1767H127.618V22.5784H127.23V21.1767Z" fill="white"/>
<path d="M128.361 21.7764V20.8519H128.75V21.8162C128.75 22.1476 128.855 22.2735 129.05 22.2735C129.244 22.2735 129.353 22.1542 129.353 21.8162V20.8519H129.712V21.7764C129.712 22.3564 129.478 22.6082 129.053 22.6082C128.628 22.6082 128.361 22.3564 128.361 21.7764Z" fill="white"/>
<path d="M130.111 20.8519H130.701C131.057 20.8519 131.327 20.9414 131.327 21.2728C131.329 21.3502 131.309 21.4268 131.269 21.4928C131.228 21.5588 131.17 21.6114 131.1 21.6439C131.191 21.6628 131.272 21.714 131.329 21.7882C131.386 21.8624 131.414 21.9547 131.409 22.0482C131.409 22.3994 131.116 22.5585 130.75 22.5585H130.111V20.8519ZM130.668 21.5412C130.856 21.5412 130.941 21.4616 130.941 21.3357C130.941 21.2098 130.852 21.1535 130.671 21.1535H130.487V21.5412H130.668ZM130.717 22.2669C130.928 22.2669 131.047 22.1907 131.047 22.0349C131.047 21.8792 130.941 21.8195 130.717 21.8195H130.5V22.2669H130.717Z" fill="white"/>
<path d="M131.707 20.8519H132.784V21.1833H132.096V21.5312H132.682V21.8626H132.096V22.2669H132.811V22.5983H131.707V20.8519Z" fill="white"/>
<path d="M133.568 22.3597L133.792 22.0913C133.908 22.1987 134.056 22.2631 134.214 22.2735C134.375 22.2735 134.454 22.2072 134.454 22.1045C134.454 22.0018 134.355 21.962 134.207 21.8991L133.983 21.803C133.887 21.7678 133.804 21.7038 133.745 21.6197C133.686 21.5355 133.654 21.4353 133.653 21.3324C133.659 21.258 133.679 21.1854 133.713 21.119C133.746 21.0526 133.793 20.9937 133.85 20.9457C133.907 20.8978 133.973 20.8619 134.044 20.8401C134.115 20.8183 134.189 20.811 134.263 20.8188C134.469 20.8199 134.667 20.9006 134.817 21.0441L134.622 21.2926C134.522 21.2057 134.395 21.1575 134.263 21.1568C134.131 21.1568 134.046 21.2131 134.046 21.3092C134.046 21.4053 134.158 21.455 134.306 21.5147L134.527 21.6041C134.625 21.6353 134.711 21.6983 134.771 21.7833C134.83 21.8684 134.86 21.9708 134.856 22.0747C134.852 22.1547 134.83 22.2329 134.794 22.3043C134.758 22.3756 134.707 22.4384 134.644 22.4887C134.582 22.5389 134.51 22.5756 134.433 22.5962C134.356 22.6167 134.276 22.6209 134.197 22.6082C133.964 22.6071 133.739 22.5185 133.568 22.3597Z" fill="white"/>
<path d="M135.427 21.1767H134.953V20.8453H136.271V21.1767H135.796V22.5784H135.407L135.427 21.1767Z" fill="white"/>
<path d="M136.559 20.8519H137.178C137.541 20.8519 137.837 20.9778 137.837 21.3887C137.837 21.7996 137.537 21.9554 137.178 21.9554H136.947V22.5784H136.559V20.8519ZM137.145 21.6472C137.349 21.6472 137.475 21.5577 137.475 21.3887C137.475 21.2197 137.363 21.1601 137.145 21.1601H136.947V21.6472H137.145ZM137.106 21.8527L137.376 21.6041L137.919 22.5784H137.484L137.106 21.8527Z" fill="white"/>
<path d="M138.176 20.8519H139.238V21.1833H138.579V21.5312H139.165V21.8626H138.579V22.2669H139.294V22.5983H138.193L138.176 20.8519Z" fill="white"/>
<path d="M139.938 20.8519H140.403L140.944 22.5784H140.532L140.308 21.7035C140.258 21.5312 140.212 21.3258 140.166 21.1468C140.126 21.3291 140.08 21.5312 140.031 21.7035L139.807 22.5784H139.408L139.938 20.8519ZM139.754 21.8626H140.581V22.1675H139.754V21.8626Z" fill="white"/>
<path d="M141.107 20.8519H141.542L141.819 21.6174C141.855 21.7201 141.885 21.8295 141.918 21.9488C141.954 21.8427 141.984 21.7334 142.017 21.6174L142.287 20.8519H142.709V22.5784H142.356V21.9355C142.356 21.7665 142.389 21.5147 142.406 21.3457L142.264 21.7566L142.023 22.4193H141.806L141.562 21.7566L141.427 21.3457C141.427 21.5147 141.476 21.7665 141.476 21.9355V22.5684H141.127L141.107 20.8519Z" fill="white"/>
<path d="M140.555 15.7785C140.555 17.1239 139.635 18.297 138.278 18.91C138.146 18.9664 137.984 18.8868 137.984 18.7609C137.985 18.7287 137.996 18.6976 138.015 18.6715C138.033 18.6455 138.06 18.6258 138.09 18.6151C139.319 18.0584 140.146 16.998 140.146 15.7785C140.146 14.559 139.319 13.4986 138.09 12.9452C138.06 12.9337 138.034 12.9139 138.016 12.888C137.997 12.8621 137.986 12.8313 137.984 12.7994C137.989 12.7673 138.001 12.7369 138.02 12.7106C138.039 12.6843 138.064 12.663 138.093 12.6483C138.121 12.6337 138.153 12.6263 138.185 12.6266C138.218 12.6269 138.249 12.6351 138.278 12.6503C139.645 13.2633 140.555 14.4331 140.555 15.7785Z" fill="white" stroke="white" stroke-width="0.75" stroke-miterlimit="10"/>
<path d="M138.699 15.7785C138.699 16.7726 138.04 17.6176 137.052 18.065C137.031 18.0758 137.008 18.0814 136.984 18.0815C136.961 18.0815 136.938 18.076 136.917 18.0653C136.896 18.0546 136.878 18.0391 136.864 18.0201C136.85 18.001 136.841 17.9789 136.838 17.9556C136.838 17.9324 136.846 17.9098 136.859 17.8909C136.873 17.872 136.892 17.8576 136.913 17.8496C137.81 17.442 138.416 16.6666 138.416 15.7785C138.416 14.8904 137.81 14.1216 136.913 13.7107C136.892 13.702 136.874 13.6874 136.86 13.6687C136.847 13.6499 136.839 13.6277 136.838 13.6046C136.841 13.5814 136.85 13.5593 136.864 13.5402C136.878 13.5212 136.896 13.5056 136.917 13.495C136.938 13.4843 136.961 13.4788 136.984 13.4788C137.008 13.4789 137.031 13.4845 137.052 13.4953C138.031 13.9426 138.699 14.7976 138.699 15.7785Z" fill="white" stroke="white" stroke-width="0.75" stroke-miterlimit="10"/>
<path d="M137.061 15.8348C137.044 16.1646 136.932 16.4824 136.738 16.749C136.544 17.0157 136.277 17.2197 135.97 17.336C135.956 17.3437 135.941 17.348 135.926 17.3484C135.91 17.3489 135.895 17.3456 135.881 17.3387C135.867 17.3319 135.855 17.3217 135.846 17.3091C135.836 17.2965 135.831 17.2818 135.828 17.2664C135.829 17.2507 135.834 17.2357 135.844 17.2232C135.853 17.2108 135.866 17.2015 135.881 17.1968C136.159 17.0902 136.4 16.9048 136.576 16.6631C136.751 16.4214 136.853 16.1337 136.87 15.8348C136.853 15.5364 136.751 15.2493 136.576 15.0081C136.4 14.7669 136.159 14.5822 135.881 14.4762C135.866 14.4714 135.853 14.4622 135.844 14.4497C135.834 14.4373 135.829 14.4222 135.828 14.4066C135.831 14.3911 135.836 14.3765 135.846 14.3639C135.855 14.3512 135.867 14.3411 135.881 14.3342C135.895 14.3274 135.91 14.324 135.926 14.3245C135.941 14.325 135.956 14.3293 135.97 14.337C136.277 14.4527 136.544 14.6561 136.738 14.9222C136.931 15.1883 137.044 15.5055 137.061 15.8348Z" fill="white" stroke="white" stroke-width="0.75" stroke-miterlimit="10"/>
</g>
</svg>
